<?xml version="1.0" encoding="UTF-8" standalone="no"?>
<svg
   id="Réteg_1"
   data-name="Réteg 1"
   viewBox="0 0 72.841001 72.841005"
   version="1.1"
   sodipodi:docname="favicon.svg"
   width="72.841003"
   height="72.841003"
   inkscape:version="1.4 (86a8ad7, 2024-10-11)"
   xmlns:inkscape="http://www.inkscape.org/namespaces/inkscape"
   xmlns:sodipodi="http://sodipodi.sourceforge.net/DTD/sodipodi-0.dtd"
   xmlns="http://www.w3.org/2000/svg"
   xmlns:svg="http://www.w3.org/2000/svg">
  <sodipodi:namedview
     id="namedview48"
     pagecolor="#ffffff"
     bordercolor="#000000"
     borderopacity="0.25"
     inkscape:showpageshadow="2"
     inkscape:pageopacity="0.0"
     inkscape:pagecheckerboard="0"
     inkscape:deskcolor="#d1d1d1"
     inkscape:zoom="7.0492616"
     inkscape:cx="56.743531"
     inkscape:cy="44.898319"
     inkscape:window-width="1920"
     inkscape:window-height="974"
     inkscape:window-x="493"
     inkscape:window-y="-11"
     inkscape:window-maximized="1"
     inkscape:current-layer="Réteg_1" />
  <defs
     id="defs23">
    <style
       id="style1">
      .cls-1 {
        fill: url(#Névtelen_színátmenet_28);
      }

      .cls-2, .cls-3 {
        fill: #fff;
      }

      .cls-3 {
        fill-rule: evenodd;
      }

      .cls-4 {
        fill: url(#Névtelen_színátmenet_26);
      }

      .cls-5 {
        fill: url(#Névtelen_színátmenet_24);
      }
    </style>
    <linearGradient
       id="Névtelen_színátmenet_28"
       data-name="Névtelen színátmenet 28"
       x1="0"
       y1="51.779999"
       x2="72.839996"
       y2="51.779999"
       gradientUnits="userSpaceOnUse">
      <stop
         offset=".43"
         stop-color="#009342"
         id="stop1" />
      <stop
         offset=".5"
         stop-color="#0a9749"
         stop-opacity=".96"
         id="stop2" />
      <stop
         offset=".59"
         stop-color="#26a35e"
         stop-opacity=".85"
         id="stop3" />
      <stop
         offset=".69"
         stop-color="#55b781"
         stop-opacity=".66"
         id="stop4" />
      <stop
         offset=".8"
         stop-color="#96d2b1"
         stop-opacity=".41"
         id="stop5" />
      <stop
         offset=".91"
         stop-color="#eaf6ef"
         stop-opacity=".08"
         id="stop6" />
      <stop
         offset=".94"
         stop-color="#fff"
         stop-opacity="0"
         id="stop7" />
    </linearGradient>
    <linearGradient
       id="Névtelen_színátmenet_26"
       data-name="Névtelen színátmenet 26"
       x1="0.88"
       y1="41.709999"
       x2="71.190002"
       y2="41.709999"
       gradientUnits="userSpaceOnUse">
      <stop
         offset=".43"
         stop-color="#e20a21"
         id="stop8" />
      <stop
         offset=".48"
         stop-color="#e21026"
         stop-opacity=".97"
         id="stop9" />
      <stop
         offset=".55"
         stop-color="#e42236"
         stop-opacity=".9"
         id="stop10" />
      <stop
         offset=".63"
         stop-color="#e83f51"
         stop-opacity=".78"
         id="stop11" />
      <stop
         offset=".71"
         stop-color="#ed6876"
         stop-opacity=".61"
         id="stop12" />
      <stop
         offset=".8"
         stop-color="#f39da6"
         stop-opacity=".4"
         id="stop13" />
      <stop
         offset=".89"
         stop-color="#fadcdf"
         stop-opacity=".14"
         id="stop14" />
      <stop
         offset=".94"
         stop-color="#fff"
         stop-opacity="0"
         id="stop15" />
    </linearGradient>
    <linearGradient
       id="Névtelen_színátmenet_24"
       data-name="Névtelen színátmenet 24"
       x1="0.059999999"
       y1="46.189999"
       x2="71.779999"
       y2="46.189999"
       gradientUnits="userSpaceOnUse">
      <stop
         offset=".43"
         stop-color="#fff"
         id="stop16" />
      <stop
         offset=".48"
         stop-color="#fff"
         stop-opacity=".98"
         id="stop17" />
      <stop
         offset=".54"
         stop-color="#fff"
         stop-opacity=".91"
         id="stop18" />
      <stop
         offset=".61"
         stop-color="#fff"
         stop-opacity=".81"
         id="stop19" />
      <stop
         offset=".69"
         stop-color="#fff"
         stop-opacity=".66"
         id="stop20" />
      <stop
         offset=".77"
         stop-color="#fff"
         stop-opacity=".47"
         id="stop21" />
      <stop
         offset=".86"
         stop-color="#fff"
         stop-opacity=".24"
         id="stop22" />
      <stop
         offset=".94"
         stop-color="#fff"
         stop-opacity="0"
         id="stop23" />
    </linearGradient>
  </defs>
  <g
     id="g48"
     transform="translate(-0.00887329,6.4505017)">
    <path
       class="cls-3"
       d="m 36.42,13.79 c -12.18,0 -35.23,0.8 -35.23,3.55 0,1.86 10.69,2.74 19.66,3.14 h 0.25 c 0,0 0,-1.1 0,-1.1 l -0.22,-0.03 c -6.7,-0.88 -6.78,-1.94 -6.78,-1.95 0,-1.01 7.49,-2.74 22.43,-2.74 14.94,0 22.43,1.74 22.43,2.74 0,0 -0.09,1.19 -7.91,2.09 l -0.22,0.02 v 1.02 h 0.25 c 9.38,-0.4 20.57,-1.27 20.57,-3.19 0,-2.74 -23.04,-3.55 -35.23,-3.55 z"
       id="path42" />
    <path
       class="cls-2"
       d="M 31.5,4.91 C 31.5,2.2 33.7,0 36.41,0 c 2.71,0 4.91,2.2 4.91,4.91 0,2.71 -2.2,4.91 -4.91,4.91 -2.71,0 -4.91,-2.2 -4.91,-4.91 z"
       id="path43" />
    <path
       class="cls-2"
       d="m 40.62,35.83 -3.7,-21.79 h -0.73 l -4.3,23.65 c 3.26,-0.83 3.59,-1.02 8.74,-1.86 z"
       id="path44" />
    <g
       id="g47">
      <path
         class="cls-1"
         d="M 72.84,59.94 C 67.5,54.71 60.45,50.8 52.24,49.22 36.01,46.09 13.57,47.88 0.04,45.1 -0.01,45.09 0,45.1 0.07,44.99 c 24.42,3.08 49.25,-9.08 71.72,7.92 l 1.06,7.03 z"
         id="path45"
         style="fill:url(#N%C3%A9vtelen_sz%C3%ADn%C3%A1tmenet_28)" />
      <path
         class="cls-4"
         d="m 0.88,44.66 c 0,0 10.95,-0.85 30.87,-6.93 2.7,-0.73 10.96,-3 18.84,-2.36 4.97,0.64 15.47,2.03 19.47,7.33 0.92,4.06 1.13,5.46 1.13,5.46 0,0 -6.75,-8.22 -24.61,-8.63 C 42.29,39.6 34.5,39.62 20.7,42.51 13.61,43.7 9.54,44.56 0.89,44.65 Z"
         id="path46"
         style="fill:url(#N%C3%A9vtelen_sz%C3%ADn%C3%A1tmenet_26)" />
      <path
         class="cls-5"
         d="m 0.06,44.99 0.89,-0.34 c 0,0 12.67,-0.66 22.09,-2.61 8.63,-1.61 34.29,-7.22 48.13,6.12 0.48,4.73 0.52,4.39 0.6,4.73 C 68.82,51.32 60.31,42.32 36.31,43.83 19.15,45.17 7.76,46.25 0.06,44.98 Z"
         id="path47"
         style="fill:url(#N%C3%A9vtelen_sz%C3%ADn%C3%A1tmenet_24)" />
    </g>
  </g>
</svg>
